<?xml version="1.0" encoding="utf-8"?>
<!-- Generator: Adobe Illustrator 18.1.1, SVG Export Plug-In . SVG Version: 6.00 Build 0)  -->
<svg version="1.1" xmlns="http://www.w3.org/2000/svg" xmlns:xlink="http://www.w3.org/1999/xlink" x="0px" y="0px" width="527.1px"
	 height="696.4px" viewBox="28 -35.4 527.1 696.4" enable-background="new 28 -35.4 527.1 696.4" xml:space="preserve">
<g id="Layer_2">
	<path d="M210.6,545.6c-1.7-1.2-42.6-51.4-45.1-62.9c-2.5-11.4,0-127.1,0-127.1S178.6,461,179.9,463s39.8,40.2,44.7,40.2
		c4.8,0,22.4,0,22.4,0s12-10.3,13.1-11.2s1.5-0.9,2.5,0s13.2,11.2,13.2,11.2s15.1,0,20.6,0s44.5-38.1,46.3-40.2
		s14.6-107.4,14.6-107.4s4.6,116.6,0,127.1c-4.6,10.5-43.1,61.9-45,62.9S212.3,546.8,210.6,545.6z"/>
</g>
<g id="Layer_3">
	<path d="M171.6,130.9c20.4-2.5,40.9-4.4,61.4-4.5c5.3,0.1,10.7-0.9,16-0.5c10.3,1,20.7,0.1,31,1.3c17.6,0.8,35.1,2.9,52.5,5.6
		c7.4,1.5,15.1,2.4,22.1,5.7c-0.1,3.4-1.5,6.6-2,9.9c-1.1,6.4-2.2,15.9-2.6,19.4s-0.7,6-0.7,7.1s-0.6,14.9-1.5,22.3
		c-0.5,10.6-0.2,21.1-0.3,31.7c0.1,5.7-0.1,11.4,0.6,17.1c0.4,14.7,1.1,29.4,3.4,43.9c8-2.6,16.3-4.6,24.6-6.1
		c9-1.4,18.1-2.9,27.3-2c0.2,3.6-0.7,7.6-4,9.7C376,309.2,347,317.6,318.4,323c-25.5,4.7-51.5,6.6-77.4,7.5
		c-23.7,0.5-47.5-0.8-70.7-6.1c-15.5-3.6-30.8-9-44.4-17.4c-5.4-3.5-10.6-7.2-14.8-12.1c-2.3-2.7-3.7-7.1-1.3-10.1
		c2.2-3.2,6.6-3.7,10.2-3.3c17.5,2.3,35.2,4.8,52.9,4l0.7-0.6c1.3-6.2,0.6-12.7,0.1-19c-0.3-7.3,0-14.7-0.8-22
		c-1.4-33.4-4-66.7-5.9-100c-0.2-3.6-1-7.3-0.2-10.9C167.5,131.1,169.9,131.2,171.6,130.9z"/>
</g>
<g id="Layer_1">
	<g id="_x23_000000ff">
		<rect x="84" y="343.6" fill="#FFFFFF" width="301.5" height="78.2"/>
		<g id="logo_name">
			<path d="M74.1,359.6c3.8,0.5,7.7,0.6,11.6,0.3c-2.4,5.9-1.8,12.4-1.9,18.6c4.4-0.1,8.8,0.1,13.2-0.1c-0.3-6.2,1.7-13.2-1.8-18.8
				c4.1,0.9,8.2,0,12.3,0c-2.9,6-1.5,12.8-1.8,19.2c0.4,8.3-2.4,17.5,2.5,25c-3.6-2.8-8.5-1.2-12.7-1.6c3.1-5.6,1.4-12.4,1.6-18.6
				c-4.1,0-8.2-0.1-12.3,0c-1,5.5-1.2,11.2,0.2,16.6l1,1.2c-0.3-5-0.5-10.1,0.1-15.1c1,4.1,0.2,8.4,0.7,12.5
				c0.7,1.8,1.6,3.5,2.3,5.3c-3.7,0.1-7.3,0.7-11,0.3c3.4-0.2,6.8-0.2,10.1-1.1c-0.8-0.8-1.8-2.4-3.1-1.6c-2.2,0.9-4.7,0.6-7,0.5
				c-0.6,0.5-1.1,1.1-1.7,1.7c-0.8-0.7-1.6-1.4-2.5-2.1c1.1-1.8,2.1-3.8,2.1-6c0-10.3,0-20.6,0-30.9
				C76.2,362.9,74.9,361.3,74.1,359.6z"/>
			<path d="M131.6,359.8c4.6-0.9,9.4,0,13.6,1.8c6.6,3.9,12.2,11.1,11.6,19.1c-0.1,8.7-5.6,17.9-14.2,20.4
				c-11.3,3.9-25.1-2.7-28.7-14.2C110,375.1,119.2,361.2,131.6,359.8 M131.7,367.3c-6.2,2.2-11.4,8.7-10,15.5
				c0.1,5.5,5.1,8.8,9.3,11.2c4,2.5,9,0.6,12.3-2.2c5.7-5,6.4-14.6,1.2-20.3C141.6,367.6,136.4,366.5,131.7,367.3z"/>
			<path d="M161.9,359.4c3.4,0,6.9,0,10.3,0.3c1,0.9,1.4,2.2,1.9,3.4c3.3,8.4,6.6,16.7,10.4,24.9c1.3-4.6,0.9-9.4,1.2-14.2
				c0.2-4.8,0.2-10.1-2.7-14.3c4.2-0.1,8.4,0,12.6,0.1c-2.9,6.7-1.6,14.1-2,21.1c0.2,7.2-0.8,14.5,0.7,21.6c-3.1,0-6.2,0-9.2,0.1
				c-3.7-9.6-7.6-19.2-12.2-28.3c-1.4,6.5-1,13.1-1.1,19.7c-0.2,3,1.1,5.7,2.5,8.4c-4.2,0-8.5,0-12.7,0.1c1.1-2,2.7-4,2.4-6.5
				c-0.1-10.3,0-20.6,0-30.9C163.9,362.9,162.7,361.2,161.9,359.4z"/>
			<path d="M199.7,359.4c9.9,0.2,19.8,0.1,29.8,0.1c1.1,2.9,2,5.9,2.5,8.9c-1.9-0.9-3.4-2.8-5.7-2.7c-5.3-0.5-10.6,0.5-15.8,0.5
				c0.1,4.2,0,8.4,0,12.6c2.9,1.2,5.3-0.9,7.4-2.6c-0.1,3.1-0.2,6.2-0.3,9.4c-2.1-1.2-4.3-2.4-6.9-2.3c-1.1,4-0.8,8.1-0.9,12.1
				c6.3,0.4,12.6,1,18.8-0.1c1.1-0.6,2.2-1.3,3.4-1.9c-0.5,3-1.8,5.9-2.8,8.8c-9.9,0.5-19.8-0.2-29.7,0.1c1.2-2.3,2.6-4.7,2.7-7.4
				c0.7-9.3,0.8-18.7,0.3-28C202.6,364.1,201.1,361.7,199.7,359.4z"/>
			<path d="M243.8,361.4c5.7-2.4,12.8-3.1,18.2,0.6c3,1.8,4.4,5.1,5.9,8.1c-3,1.6-6,3.2-9,4.6c1.2-3.9-0.9-8.5-5.1-9.2
				c-3.8,0.4-8,2.1-8.9,6.2c0.4,2.9,3,5,5.8,5.3c5.5,1,12,1.9,15.4,6.9c1.9,3.5,2.7,8.3,0.1,11.6c-7.2,10.6-26.1,8.2-30.4-3.9
				c2.7-1.5,5.5-2.9,8.1-4.5c-0.6,4.1,3.2,7.2,6.9,7.9c3.5,0.6,6.8-1.4,9.3-3.7c-0.1-2.2-0.1-4.9-2.3-6.2
				c-6.1-3.5-14.8-1.6-19.5-7.6C235.4,372.1,237.7,363.8,243.8,361.4z"/>
			<path d="M270.8,368.4c1.1-3.1,2.7-6,4.4-8.8c9.7,0.2,19.4,0,29.1-0.1c1.4,3.1,3.1,6,4.4,9.1c-4.3-3.1-9.5-2.4-14.4-2.3
				c-0.8,6.8-0.6,13.7-0.6,20.5c0.1,5.1-0.3,10.6,2.2,15.3c-4.1,0-8.2,0-12.2,0.2c1.2-2.3,2.2-4.8,2.1-7.5c0.1-9.5,0.1-19,0.2-28.6
				c-3.4,0-6.8-0.3-10.3-0.1C274,366.9,272.5,367.9,270.8,368.4z"/>
			<path d="M341.3,359.4c3.6,0.1,7.2,0.2,10.9,0.2c-0.3,1.5-0.8,3.2-0.2,4.7c2.2,6.7,4.4,13.4,6.8,20.1c2.2,6.1,3.8,12.4,7.1,18
				c-3.8-0.1-7.6-0.1-11.4,0c1-3.5,0.3-7.2-1.7-10.2c-3.5-1.3-7.5-0.8-11-0.2c-1.1,3.2-2.7,6.6-1.7,10.1c-3.8,0.1-7.6,0.1-11.3,0
				c5.7-8.7,7.9-19.1,11-28.9C340.8,368.8,343.4,364.1,341.3,359.4 M344.4,387.3c2.2,0,4.5,0,6.7,0c-1.2-2.8-2.4-5.7-3.9-8.4
				C345.7,381.5,344.7,384.3,344.4,387.3z"/>
			<path d="M371.1,359.7c8.8,0,17.7-0.9,26.4,0.7c3.3,0.4,6.1,3,7.1,6.1c0.9,5.1,0.9,11.1-3.6,14.6c3.2,2.2,6.5,5.5,5.9,9.8
				c0.6,5-2.6,9.9-7.5,11.3c-9.6,1.1-19.2-0.3-28.8,0.4c1.1-1.7,2.5-3.5,2.4-5.6c0.2-10.7,0-21.4,0.1-32.1
				C373.4,362.8,372,361.3,371.1,359.7 M382,366.3c-0.3,4-0.4,8,0,12c4.4-0.5,9.4,1,13.4-1.5c2.8-2.8,2.4-8.7-1.7-10.1
				C389.8,365.7,385.8,366.2,382,366.3 M381.9,384.2c-0.2,4-0.3,7.9-0.2,11.9c4.6,0.1,9.6,0.8,14-1.1c2.9-1.3,4.6-5.9,1.8-8.1
				C393,383.3,387.1,384.3,381.9,384.2z"/>
			<path d="M410.9,359.5c10.1,0.1,20.2,0,30.3,0.1c0.8,2.9,1.6,5.8,2,8.7c-1.7-0.9-3-2.8-5.1-2.7c-5.4,0-10.9-0.3-16.3,0.5
				c-0.1,4.2,0,8.3,0,12.5c3,1.3,5.6-0.5,7.8-2.5c0,3.2,0.3,6.4-0.7,9.5c-2.1-1.5-4.4-2.6-7-2.2c-0.4,4-0.4,8.1-0.2,12.1
				c7.3-0.3,15.5,2.4,22.1-1.9c-0.9,2.9-2,5.8-3.1,8.7c-9.8,0.3-19.6-0.3-29.4,0c1.3-2.8,2.6-5.7,2.7-8.8c0.2-9.2,0.2-18.4,0.1-27.6
				C414,363.4,412,361.5,410.9,359.5z"/>
			<path d="M295.5,368.1c3.4,0.1,6.7-0.2,10.1,0.3c-3.1,0.2-6.3,0.1-9.4,0.1c-0.2,4.2,0.3,8.5-0.4,12.7
				C295.2,376.9,295.6,372.5,295.5,368.1z"/>
		</g>
	</g>
</g>
<g id="Layer_5">
	<g id="local_hard_cider">
		<path d="M170.7,559C171.3,559.7,171.3,559.7,170.7,559z"/>
		<path d="M190.7,559C191.3,559.7,191.3,559.7,190.7,559z"/>
		<path d="M336.7,559C337.3,559.6,337.3,559.6,336.7,559z"/>
		<path d="M362.6,558.9C363.3,559.6,363.3,559.6,362.6,558.9z"/>
		<path d="M199.2,596.1c1.7-9.7,5.2-18.9,7.6-28.4c0.3,3,0.5,6-0.4,8.9c-2.3,9.1-5.7,18.1-5.4,27.6c1.3-0.6,2.7-1.2,4-1.8
			c-1.5,1.3-3.2,2.2-5,3C198.1,602.7,198.9,599.2,199.2,596.1z"/>
		<path d="M282.7,571.8c0.2-1.4,1.4-2,2.4-2.8c-2.2,11.7-8.2,22.9-7.3,35.1c1.2-0.1,2.5-0.1,3.7-0.2c-1.5,0.4-2.9,0.9-4.4,1.4
			c-1.1-2.2-1.1-4.5-1.3-6.9c-2.2,2.2-3.9,6.7-7.7,5.8c-2.9-1-2.3-4.5-1.7-6.8c1.7-4.3,4.5-8.4,8.5-10.8c1.2-0.2,2.4-0.2,3.6-0.2
			C279.8,581.5,281.2,576.6,282.7,571.8 M273.4,589.8c-3.1,3.7-6.3,8.1-5.8,13.2c1.3-0.3,2.7-0.4,3.5-1.6c3.5-4.1,6-9,7.1-14.3
			C276.5,587.7,274.6,588.2,273.4,589.8z"/>
		<path d="M343.4,571.7c0.3-1.3,1.2-2.1,2.5-2.6c-2.2,10.3-6.6,20.2-7.5,30.8c-0.4,2,0.8,3.8,1.7,5.4c-0.9-0.4-1.9-0.8-2.8-1.1
			c-0.3-1.8-0.7-3.6-1.1-5.4c-1.7,1.9-3.1,4.1-5.2,5.4c-2.1,0.7-3.6-1.1-5-2.3c-1.4,1.3-2.9,2.5-4.5,3.5c-2.5-2.7-2.5-6.3-2.5-9.7
			c1.6-3,3.1-5.9,4.8-8.8c0.5-0.1,1.6-0.4,2.1-0.5c-2,5.7-5,11.3-3.9,17.5c3.9-1.6,4.9-5.7,6.4-9.2c2.2-4.1,5.7-9,11-8.4
			C340.6,581.4,342,576.6,343.4,571.7 M331.6,592.9c-1.9,3-4.1,6.3-3.4,9.9c0.7-0.1,2.1-0.4,2.8-0.6c4.1-4.2,6.7-9.6,8.1-15.2
			C335.8,587.7,333.5,590.3,331.6,592.9z"/>
		<path d="M326.9,572.1c0.5,0.2,1.4,0.5,1.9,0.6c0.4,3.4-1.6,6.3-3,9.2C324.5,578.6,326.1,575.3,326.9,572.1z"/>
		<path d="M220.4,591.7c1.6-5.9,3.9-11.7,6.8-17.1c-0.8,4.3-2.4,8.5-3.9,12.7c1.4,0.4,2.8,0.9,4.2,1.3c-1.5-0.2-3-0.4-4.4-0.6
			c-0.5,1.2-0.9,2.5-1.4,3.8c3.3-0.2,6.6-0.5,9.9-0.5c1.5-5.8,3.7-11.5,6.7-16.7c-1.2,5.5-3.2,10.7-4.8,16c3.3,0,6.6-0.2,9.9,0
			c-3.3,1.1-7.6-0.4-10.2,2c-0.4,4-1.8,9.2,1.3,12.5c0.8,0,2.3,0.1,3.1,0.2c0.6-2.5,1-5,1.6-7.5c-0.2,2.4-0.3,4.8-0.8,7.2
			c-2.2,3-7,0.9-7.5-2.4c-0.5-3.5,0-7,0.2-10.5c-3.4,0.5-6.8,0.9-10.2,1.2c-1.5,5.1-1.6,10.5-1.3,15.8c-2-5-1.3-10.6-0.3-15.8
			c-1.4-0.4-2.8-0.8-4.2-1.3c-0.2-0.5-0.5-1.6-0.6-2.2c1.2-0.5,2.4-1,3.6-1.5c-0.8,0.9-1.5,1.8-2.2,2.7
			C217.6,591.3,219,591.5,220.4,591.7z"/>
		<path d="M143.5,575.8c1.6,8.6-2.5,16.8-5.7,24.6c5.2,0,9.8,2.6,14.7,4c-3.3-5.7-0.5-12.5,4-16.6c2.9-2.9,8.2-1.5,9.9,2
			c2.1,4.8-0.4,10.5-4.8,13.1c-3,2-6.8,1.5-10.2,1.7c-3.6,0.3-6.6-2.3-10-2.8c-2.6-0.1-4.3,2-6,3.7c-0.4-0.9-0.9-1.7-1.3-2.6
			C138.1,594.2,141.2,585.1,143.5,575.8 M159,589c-4.1,3-7.3,8.2-6.1,13.4c7.6,3.2,16.3-8,10.6-14.4
			C161.9,588.1,160.2,587.8,159,589z"/>
		<path d="M295,595.8c-0.7-10.8,9.6-20.7,20.3-19.7c1.5,1.6,2.6,3.5,3.3,5.5c-1.2-1.1-2.4-2.3-3.5-3.6c-7.1-0.3-13.2,4.9-16.6,10.7
			c-1.8,3.1-2.5,7.3-0.2,10.3c1.5,2,3.7,3.9,6.3,3.5c5.5,0.2,9.8-3.8,14-6.8c-1.2,3-4.2,4.5-6.8,6.1c-3.4,2.1-7.5,3.2-11.5,2.2
			C297.2,602.7,295,599.3,295,595.8z"/>
		<path d="M260.4,591.8c2.4-3.9,6.4-6.1,10.9-6.6c-3.3,1.6-6.7,3.5-8.5,6.9c-3,4.3-3.1,9.6-5.1,14.2c-1.3-6.6,1-13.2,2.1-19.6
			C260,588.4,260.2,590.1,260.4,591.8z"/>
		<path d="M368,586.4c1.7-0.7,3.5-1,5.3-1.4c-8.6,3.1-12.6,12.4-12.9,21c-2.7-1.8-0.7-5.9-1.2-8.6c-2.8,3.6-6.6,7.3-11.6,7.1
			c-2.3,0.3-4.8-1.4-4.8-3.8c-0.8-5.5,2.9-10.6,7.1-13.7c2.6-1.8,8.3,0.5,6.7,4.1c-2.2,4.3-7.1,6.9-12,6c-0.4,1.8-0.3,3.6,0.1,5.4
			c4.5,2.4,9.1-1.2,12.3-4.2c2.4-2,3.2-5,3.5-8C363.9,591.1,365.2,587.4,368,586.4 M351.3,588.5c-2.2,2.1-4.7,4.4-5.5,7.5
			c3.7-0.2,7.9-1.8,9.3-5.5C356,588.4,352.7,587,351.3,588.5z"/>
		<path d="M169.7,596.8c0.2-5.6,5.6-11.6,11.6-10.1c2,0.5,2.1,2.7,2.4,4.3c-1.6-1.4-3.2-3.8-5.8-2.8c-3.4,2-5.1,6-6.1,9.6
			c-0.1,2-0.7,4.8,1.6,5.9c4.8-0.2,9.1-3.8,10.7-8.2c2-4.4,6-7.2,10.2-9.2c1.2,0.6,2.4,1.2,3.6,1.9c-1.5,4.2-4.6,8-4.3,12.6
			c-0.1,2.3,2.2,3.5,3.5,5.1c-1.4-0.5-2.8-0.8-4.1-1.4c-1.3-1.2-1-3.1-1.4-4.6c-2.2,2.1-4.2,4.9-7.6,4.9c-0.6-1.6-1.1-3.2-1.6-4.9
			c-2.9,2.4-6.3,5.5-10.4,4.4C169.5,602.7,169.7,599.4,169.7,596.8 M184.5,598.9c-0.9,1.5-0.6,3.3-0.4,5c6.1-3,10.1-9.2,11.2-15.8
			C190.7,590.3,186.8,594.2,184.5,598.9z"/>
		<path d="M242.1,604.4c-2.9-8,4.4-15.4,11.3-18.1c1,0.7,2,1.4,3,2.1c-1.5,3.5-3.4,6.9-4.3,10.6c-0.6,2.5,1.4,4.5,2.4,6.6
			c-3.2-0.3-4.1-3.1-4.5-5.8C248.2,602.4,245.7,605.1,242.1,604.4 M242.1,603.5c0.6-0.1,1.7-0.3,2.2-0.3c5.1-3.5,8.6-9,9.9-15
			C248,590.8,242.9,596.6,242.1,603.5z"/>
	</g>
</g>
<g id="Layer_4">
</g>
</svg>
